# xmcd
#
# Track frame offsets:
#	183
#	16565
#	27310
#	49760
#	68488
#	81790
#	100150
#	113103
#	128343
#	141593
#	154935
#	170408
#	183433
#	198570
#
# Disc length: 2915 seconds
#
# Revision: 7
# Processed by: cddbd v1.5.2PL0 Copyright (c) Steve Scherf et al.
# Submitted via: VUPlayer 2.49
#
DISCID=b10b610e
DTITLE=Various Artist - Hollandse Ouwe en Nieuwe CD-2
DYEAR=1995
DGENRE=Nederlands
TTITLE0=Hanny en de Rekels - Dit is 'n liedje over liefde
TTITLE1=John Spencer - Lana
TTITLE2=Jacques Herb - Manuela
TTITLE3=Don Mercedes - Rocky
TTITLE4=Han Wellerdieck - Je t'aime
TTITLE5=Stella - In de nacht ben jij gekomen
TTITLE6=Micha Marah - 't Is gek om weer verliefd te zijn
TTITLE7=Freddy Breck - Meisje vaar je mee
TTITLE8=De Vrijbuiters - Geluk is niet te koop
TTITLE9=Apollo Trio - Op een tropisch eiland
TTITLE10=Mien Oostvogels - Amor Amor Amor
TTITLE11=The Sunshines - Meisjelief
TTITLE12=Tom en Dick - Bloody Mary
TTITLE13=D.C. Lewis - Mijn gebed
EXTD=
EXTT0=
EXTT1=
EXTT2=
EXTT3=
EXTT4=
EXTT5=
EXTT6=
EXTT7=
EXTT8=
EXTT9=
EXTT10=
EXTT11=
EXTT12=
EXTT13=
PLAYORDER=
